<svg width="22" height="12" viewBox="0 0 22 12" fill="none" xmlns="http://www.w3.org/2000/svg">
<path fill-rule="evenodd" clip-rule="evenodd" d="M0 5.62896C0 5.4632 0.0790176 5.30423 0.21967 5.18702C0.360322 5.06981 0.551088 5.00396 0.75 5.00396H18.4395L13.719 1.07146C13.5782 0.954105 13.4991 0.794933 13.4991 0.628963C13.4991 0.462994 13.5782 0.303821 13.719 0.186463C13.8598 0.0691049 14.0508 0.00317383 14.25 0.00317383C14.4492 0.00317382 14.6402 0.0691049 14.781 0.186463L20.781 5.18646C20.8508 5.24452 20.9063 5.31349 20.9441 5.38942C20.9819 5.46535 21.0013 5.54675 21.0013 5.62896C21.0013 5.71117 20.9819 5.79257 20.9441 5.8685C20.9063 5.94444 20.8508 6.01341 20.781 6.07146L14.781 11.0715C14.6402 11.1888 14.4492 11.2548 14.25 11.2548C14.0508 11.2548 13.8598 11.1888 13.719 11.0715C13.5782 10.9541 13.4991 10.7949 13.4991 10.629C13.4991 10.463 13.5782 10.3038 13.719 10.1865L18.4395 6.25396H0.75C0.551088 6.25396 0.360322 6.18812 0.21967 6.07091C0.0790176 5.95369 0 5.79472 0 5.62896Z" fill="#1E1E1E"/>
</svg>
