<svg width="73" height="24" viewBox="0 0 73 24" fill="none" xmlns="http://www.w3.org/2000/svg">
<path d="M2.01111 17.7188C5.16714 14.2813 8.16576 10.7952 11.7575 7.82484C16.2379 4.11951 24.9788 2.04834 30.6359 2.41443C34.0065 2.63256 35.888 1.67788 39.1147 3.28046C40.6422 4.03908 42.1518 3.51996 43.7388 3.73543C45.3942 3.96017 47.5456 4.71909 49.103 5.34834C52.4599 6.7046 56.7689 7.71283 59.3589 10.0909M57.1372 14.6753C60.1282 11.4177 63.1083 8.89332 66.0768 5.66004M56.5361 16.773C57.6238 17.5695 58.8173 17.3695 60.0275 17.66C61.9476 18.1211 64.2021 19.9254 66.1815 20.6974C67.3721 21.1617 68.5397 21.0757 69.6713 21.5461C70.8055 22.0176 70.7842 21.3461 71.0113 20.1267C71.6876 16.4955 69.666 11.8141 67.933 8.68887M57.0129 14.1499C56.9694 14.5412 56.5256 14.6695 56.428 15.0112C56.3483 15.2902 56.0874 15.5815 56.0874 15.8853" stroke="#727270" stroke-width="3" stroke-linecap="round"/>
</svg>
