<svg width="59" height="11" viewBox="0 0 59 11" fill="none" xmlns="http://www.w3.org/2000/svg">
<path d="M1.7511 7.05546C3.81814 7.05546 5.3544 6.09754 7.61048 5.90953C11.7488 5.56467 16.0613 5.88791 20.2157 5.88791C25.8886 5.88791 31.5128 5.49873 37.1885 5.49873C40.2322 5.49873 43.0905 4.9188 46.0965 4.74198C46.9503 4.69175 49.2003 5.17205 49.6208 4.33117M50.7883 2.77444V9.00139M50.3992 2.38525C51.1928 2.38525 56.8426 3.84588 56.9937 4.52577C57.2932 5.87375 54.6882 5.40911 54.291 6.10413C53.8627 6.85365 53.6164 7.83383 52.7343 7.83383M51.9559 5.88791H53.5126" stroke="#727270" stroke-width="3" stroke-linecap="round"/>
</svg>
