<svg width="14" height="15" viewBox="0 0 14 15" fill="none" xmlns="http://www.w3.org/2000/svg">
<path d="M6.1663 14.2937C5.89698 14.2937 5.67 14.2014 5.48536 14.0168C5.30073 13.8321 5.20842 13.6052 5.20842 13.3358V8.38067L0.259131 2.0564C0.0314779 1.77711 -0.0021122 1.48227 0.15836 1.17188C0.318846 0.861494 0.571492 0.706299 0.916297 0.706299H13.083C13.4278 0.706299 13.6804 0.861494 13.8409 1.17188C14.0014 1.48227 13.9694 1.77711 13.7451 2.0564L8.79584 8.38067V13.3757C8.79584 13.6384 8.70767 13.857 8.53134 14.0317C8.35501 14.2064 8.1355 14.2937 7.87282 14.2937H6.1663ZM6.99963 8.34445L11.905 2.13067H2.09928L6.99963 8.34445Z" fill="white"/>
</svg>
