<svg width="190" height="28" viewBox="0 0 190 28" fill="none" xmlns="http://www.w3.org/2000/svg">
<path d="M27.708 23.992C27.4681 23.992 27.24 23.956 27.024 23.884C26.808 23.788 26.484 23.62 26.052 23.38C24.54 22.492 22.56 21.628 20.112 20.788C19.032 20.428 17.748 20.056 16.26 19.672C14.796 19.264 13.644 18.964 12.804 18.772L13.056 23.416C13.08 24.064 13.164 24.604 13.308 25.036C13.452 25.492 13.524 25.78 13.524 25.9C13.524 26.164 13.392 26.38 13.128 26.548C12.864 26.74 12.588 26.836 12.3 26.836C11.94 26.836 11.712 26.584 11.616 26.08C11.616 26.032 11.58 25.816 11.508 25.432C11.46 25.048 11.436 24.508 11.436 23.812C11.436 23.356 11.388 22.384 11.292 20.896C11.268 20.392 11.244 19.912 11.22 19.456C11.196 18.976 11.184 18.556 11.184 18.196C11.112 18.124 11.016 18.04 10.896 17.944C10.8 17.848 10.716 17.716 10.644 17.548C10.572 17.332 10.512 17.104 10.464 16.864C10.416 16.624 10.392 16.444 10.392 16.324C10.392 16.156 10.44 16.024 10.536 15.928C10.632 15.832 10.776 15.724 10.968 15.604C10.824 9.604 10.752 6.172 10.752 5.308C10.752 4.54 10.764 3.832 10.788 3.18401C10.812 2.53601 10.824 2.10401 10.824 1.88801C10.68 1.912 10.248 1.972 9.52805 2.068C8.80805 2.16401 8.23205 2.26001 7.80005 2.35601C6.26405 2.71601 5.10005 3.064 4.30805 3.4C3.49205 3.71201 2.71205 4.072 1.96805 4.48C1.75205 4.624 1.54805 4.74401 1.35605 4.84001C1.14005 4.912 0.936048 4.948 0.744048 4.948C0.552048 4.948 0.384048 4.864 0.240048 4.69601C0.0960478 4.504 0.0240479 4.27601 0.0240479 4.01201C0.0240479 3.556 0.792048 3.028 2.32805 2.428C3.86405 1.82801 5.53205 1.336 7.33205 0.952004C8.34005 0.736004 9.62405 0.556004 11.184 0.412005C12.744 0.244004 14.196 0.160004 15.54 0.160004C17.844 0.160004 19.8 0.412004 21.408 0.916005C23.04 1.42001 24.264 2.12801 25.08 3.04001C25.92 3.952 26.34 4.99601 26.34 6.17201C26.34 7.68401 25.908 8.98001 25.0441 10.06C24.18 11.14 23.028 12.076 21.588 12.868C20.172 13.66 18.24 14.56 15.792 15.568C15.168 15.856 14.544 16.12 13.92 16.36C13.32 16.6 12.912 16.768 12.696 16.864C12.696 17.008 12.708 17.116 12.732 17.188C15.324 17.764 17.88 18.424 20.4 19.168L21.156 19.384C23.772 20.176 25.704 20.8 26.952 21.256C28.2 21.688 28.824 22.048 28.824 22.336C28.824 22.624 28.704 22.972 28.464 23.38C28.224 23.788 27.972 23.992 27.708 23.992ZM15.252 1.70801C13.764 1.70801 12.828 1.732 12.444 1.78C12.42 1.948 12.384 2.344 12.336 2.968C12.312 3.592 12.3 4.21601 12.3 4.84001L12.444 10.6L12.588 15.064C12.804 15.04 13.224 14.932 13.848 14.74C14.496 14.524 15.036 14.32 15.468 14.128C18.516 12.904 20.784 11.68 22.272 10.456C23.784 9.208 24.5401 7.78 24.5401 6.17201C24.5401 5.38 24.1921 4.648 23.496 3.976C22.8 3.304 21.744 2.764 20.328 2.35601C18.936 1.92401 17.244 1.70801 15.252 1.70801Z" fill="black"/>
<path d="M44.196 16.36C44.196 16.792 43.872 17.74 43.224 19.204C42.6 20.668 41.64 22.024 40.344 23.272C39.072 24.52 37.5 25.144 35.628 25.144C34.092 25.144 32.808 24.664 31.776 23.704C30.744 22.744 30.228 21.268 30.228 19.276C30.228 17.404 30.66 15.556 31.524 13.732C32.388 11.884 33.516 10.384 34.908 9.23201C36.3 8.05601 37.7401 7.46801 39.2281 7.46801C40.1161 7.46801 40.86 7.672 41.46 8.08C42.084 8.464 42.396 9.028 42.396 9.77201C42.396 10.612 41.916 11.428 40.956 12.22C40.02 13.012 38.796 13.708 37.284 14.308C35.772 14.908 34.212 15.34 32.604 15.604C32.316 16.708 32.172 17.788 32.172 18.844C32.172 20.236 32.496 21.316 33.144 22.084C33.816 22.852 34.764 23.236 35.988 23.236C37.836 23.236 39.336 22.576 40.488 21.256C41.64 19.936 42.6 18.448 43.368 16.792C43.416 16.696 43.5 16.516 43.62 16.252C43.74 15.964 43.848 15.82 43.944 15.82C44.112 15.82 44.196 16 44.196 16.36ZM38.796 8.94401C37.884 8.94401 37.008 9.24401 36.168 9.844C35.328 10.444 34.62 11.164 34.044 12.004C33.492 12.844 33.132 13.588 32.964 14.236C34.068 14.116 35.232 13.804 36.456 13.3C37.68 12.796 38.7 12.244 39.516 11.644C40.356 11.044 40.7761 10.552 40.7761 10.168C40.7761 9.784 40.572 9.484 40.164 9.26801C39.78 9.05201 39.324 8.94401 38.796 8.94401Z" fill="black"/>
<path d="M63.6313 7.72001C62.3833 9.136 61.2193 11.164 60.1393 13.804C59.0593 16.444 58.2073 19.3 57.5833 22.372C57.5113 22.732 57.3913 23.452 57.2233 24.532L57.0433 25.792C56.9713 26.176 56.8033 26.476 56.5393 26.692C56.2993 26.908 55.8673 27.016 55.2433 27.016C55.1233 27.016 54.7153 26.296 54.0193 24.856C53.3233 23.392 52.5913 21.82 51.8233 20.14L50.2753 16.756C49.3393 14.716 48.5593 13.12 47.9353 11.968C47.3113 10.816 46.8553 10.24 46.5673 10.24C46.4713 10.24 46.3873 10.3 46.3153 10.42C46.2673 10.54 46.2073 10.6 46.1353 10.6C46.0153 10.6 45.9073 10.552 45.8113 10.456C45.7393 10.336 45.7033 10.216 45.7033 10.096C45.7033 9.784 45.8713 9.37601 46.2073 8.87201C46.5673 8.36801 46.9153 8.11601 47.2513 8.11601C47.4913 8.11601 47.6713 8.164 47.7913 8.26C47.9113 8.356 48.0193 8.464 48.1153 8.584C48.2113 8.704 48.2833 8.8 48.3313 8.87201C48.9073 9.59201 49.9033 11.488 51.3193 14.56C51.8233 15.64 53.0713 18.46 55.0633 23.02L55.8913 24.928C55.8913 24.304 56.0113 23.296 56.2513 21.904C56.7793 19.072 57.5713 16.264 58.6273 13.48C59.6833 10.696 60.9193 8.36801 62.3353 6.49601C62.6233 6.11201 62.8513 5.848 63.0193 5.70401C63.2113 5.536 63.4513 5.452 63.7393 5.452C63.8593 5.452 64.0513 5.644 64.3153 6.02801C64.5793 6.38801 64.7113 6.62801 64.7113 6.748C64.7113 6.868 64.5433 7.036 64.2073 7.252C63.8953 7.468 63.7033 7.624 63.6313 7.72001Z" fill="black"/>
<path d="M67.4889 3.00401C67.0809 3.00401 66.6609 2.83601 66.2289 2.50001C65.8209 2.164 65.6169 1.888 65.6169 1.67201C65.6169 1.408 65.7369 1.156 65.9769 0.916005C66.2409 0.676005 66.5049 0.556005 66.7689 0.556005C67.1289 0.676005 67.4289 0.868005 67.6689 1.132C67.8609 1.324 68.0769 1.576 68.3169 1.88801C68.5569 2.20001 68.6769 2.392 68.6769 2.464C68.6769 2.82401 68.2809 3.00401 67.4889 3.00401ZM68.5689 25.828C68.2329 25.804 67.9809 25.264 67.8129 24.208C67.6689 23.152 67.5129 21.148 67.3449 18.196C67.2489 16.252 67.1649 14.356 67.0929 12.508C67.0209 10.636 66.9729 9.19601 66.9489 8.18801C66.9489 7.92401 66.9849 7.73201 67.0569 7.61201C67.1529 7.468 67.3209 7.396 67.5609 7.396C68.1129 7.396 68.4609 7.624 68.6049 8.08C68.7489 8.536 68.8209 9.412 68.8209 10.708L68.7849 14.956C68.7849 17.38 68.8569 19.324 69.0009 20.788C69.0009 20.86 69.1089 21.628 69.3249 23.092C69.4929 24.1 69.5769 24.772 69.5769 25.108C69.5769 25.348 69.4689 25.528 69.2529 25.648C69.0609 25.792 68.8329 25.852 68.5689 25.828Z" fill="black"/>
<path d="M90.7367 7.72001C89.4887 9.136 88.3247 11.164 87.2447 13.804C86.1647 16.444 85.3127 19.3 84.6887 22.372C84.6167 22.732 84.4967 23.452 84.3287 24.532L84.1487 25.792C84.0767 26.176 83.9087 26.476 83.6447 26.692C83.4047 26.908 82.9727 27.016 82.3487 27.016C82.2287 27.016 81.8207 26.296 81.1247 24.856C80.4287 23.392 79.6967 21.82 78.9287 20.14L77.3807 16.756C76.4447 14.716 75.6647 13.12 75.0407 11.968C74.4167 10.816 73.9607 10.24 73.6727 10.24C73.5767 10.24 73.4927 10.3 73.4207 10.42C73.3727 10.54 73.3127 10.6 73.2407 10.6C73.1207 10.6 73.0127 10.552 72.9167 10.456C72.8447 10.336 72.8087 10.216 72.8087 10.096C72.8087 9.784 72.9767 9.37601 73.3127 8.87201C73.6727 8.36801 74.0207 8.11601 74.3567 8.11601C74.5967 8.11601 74.7767 8.164 74.8967 8.26C75.0167 8.356 75.1247 8.464 75.2207 8.584C75.3167 8.704 75.3887 8.8 75.4367 8.87201C76.0127 9.59201 77.0087 11.488 78.4247 14.56C78.9287 15.64 80.1767 18.46 82.1687 23.02L82.9967 24.928C82.9967 24.304 83.1167 23.296 83.3567 21.904C83.8847 19.072 84.6767 16.264 85.7327 13.48C86.7887 10.696 88.0247 8.36801 89.4407 6.49601C89.7287 6.11201 89.9567 5.848 90.1247 5.70401C90.3167 5.536 90.5567 5.452 90.8447 5.452C90.9647 5.452 91.1567 5.644 91.4207 6.02801C91.6847 6.38801 91.8167 6.62801 91.8167 6.748C91.8167 6.868 91.6487 7.036 91.3127 7.252C91.0007 7.468 90.8087 7.624 90.7367 7.72001Z" fill="black"/>
<path d="M107.266 16.36C107.266 16.792 106.942 17.74 106.294 19.204C105.67 20.668 104.71 22.024 103.414 23.272C102.142 24.52 100.57 25.144 98.6984 25.144C97.1624 25.144 95.8784 24.664 94.8464 23.704C93.8144 22.744 93.2984 21.268 93.2984 19.276C93.2984 17.404 93.7304 15.556 94.5944 13.732C95.4584 11.884 96.5864 10.384 97.9784 9.23201C99.3704 8.05601 100.81 7.46801 102.298 7.46801C103.186 7.46801 103.93 7.672 104.53 8.08C105.154 8.464 105.466 9.028 105.466 9.77201C105.466 10.612 104.986 11.428 104.026 12.22C103.09 13.012 101.866 13.708 100.354 14.308C98.8424 14.908 97.2824 15.34 95.6744 15.604C95.3864 16.708 95.2424 17.788 95.2424 18.844C95.2424 20.236 95.5664 21.316 96.2144 22.084C96.8864 22.852 97.8344 23.236 99.0584 23.236C100.906 23.236 102.406 22.576 103.558 21.256C104.71 19.936 105.67 18.448 106.438 16.792C106.486 16.696 106.57 16.516 106.69 16.252C106.81 15.964 106.918 15.82 107.014 15.82C107.182 15.82 107.266 16 107.266 16.36ZM101.866 8.94401C100.954 8.94401 100.078 9.24401 99.2384 9.844C98.3984 10.444 97.6904 11.164 97.1144 12.004C96.5624 12.844 96.2024 13.588 96.0344 14.236C97.1384 14.116 98.3024 13.804 99.5264 13.3C100.75 12.796 101.77 12.244 102.586 11.644C103.426 11.044 103.846 10.552 103.846 10.168C103.846 9.784 103.642 9.484 103.234 9.26801C102.85 9.05201 102.394 8.94401 101.866 8.94401Z" fill="black"/>
<path d="M134.874 23.956C134.586 23.956 134.358 23.944 134.19 23.92C134.022 23.872 133.902 23.764 133.83 23.596C133.614 23.236 133.362 22.168 133.074 20.392C132.786 18.616 132.51 16.576 132.246 14.272C131.67 7.24 131.226 3.65201 130.914 3.50801C130.65 4.08401 130.242 5.176 129.69 6.784C129.138 8.368 128.502 10.444 127.782 13.012C126.99 15.772 126.39 17.68 125.982 18.736C125.574 19.768 125.214 20.404 124.902 20.644C124.71 20.812 124.47 20.98 124.182 21.148C123.918 21.292 123.69 21.364 123.498 21.364C123.258 21.364 123.102 21.34 123.03 21.292C122.958 21.22 122.874 21.028 122.778 20.716C122.682 20.356 122.454 19.24 122.094 17.368C121.734 15.472 121.458 13.768 121.266 12.256L121.05 10.744C120.642 7.62401 120.366 5.88401 120.222 5.52401C119.766 5.932 119.334 6.844 118.926 8.26C118.518 9.652 118.05 11.632 117.522 14.2C117.018 16.192 116.406 19.432 115.686 23.92C115.662 24.184 115.482 24.424 115.146 24.64C114.81 24.856 114.51 24.964 114.246 24.964C113.862 24.964 113.646 24.592 113.598 23.848C113.574 23.104 113.406 21.496 113.094 19.024C112.806 16.552 112.542 14.38 112.302 12.508C111.966 9.844 111.51 7.372 110.934 5.092C110.766 4.37201 110.682 3.96401 110.682 3.86801C110.682 3.508 110.85 3.22 111.186 3.00401C111.546 2.764 111.93 2.644 112.338 2.644C112.53 2.644 112.734 3.388 112.95 4.87601C113.166 6.36401 113.394 8.236 113.634 10.492L113.742 11.68C113.838 12.472 113.946 13.3 114.066 14.164C114.522 17.836 114.774 20.14 114.822 21.076C115.302 18.292 115.842 15.496 116.442 12.688L116.766 11.104C117.294 8.56001 117.87 6.64001 118.494 5.34401C119.118 4.02401 119.922 3.36401 120.906 3.36401C121.218 3.36401 121.566 4.18001 121.95 5.812C122.334 7.42 122.634 9.30401 122.85 11.464C123.018 13 123.234 14.5 123.498 15.964C123.762 17.428 124.002 18.448 124.218 19.024C124.362 18.616 124.65 17.716 125.082 16.324C125.538 14.932 125.958 13.612 126.342 12.364C127.518 8.35601 128.766 4.76801 130.086 1.6C130.326 1.09601 130.554 0.736006 130.77 0.520005C131.01 0.280004 131.418 0.160004 131.994 0.160004C132.306 0.160004 132.642 1.528 133.002 4.264C133.362 7.00001 133.662 10.168 133.902 13.768C134.55 18.856 135.138 21.628 135.666 22.084C136.026 22.396 136.206 22.732 136.206 23.092C136.206 23.26 136.062 23.452 135.774 23.668C135.51 23.86 135.21 23.956 134.874 23.956Z" fill="black"/>
<path d="M154.624 23.668C154.624 23.956 154.504 24.292 154.264 24.676C154.024 25.036 153.784 25.216 153.544 25.216C153.136 25.216 152.824 24.964 152.608 24.46C152.392 23.956 152.284 23.368 152.284 22.696C152.284 22.12 152.32 20.392 152.392 17.512L152.428 16.144C152.428 15.592 152.284 15.196 151.996 14.956C150.916 16.78 149.908 18.364 148.972 19.708C148.036 21.052 146.848 22.324 145.408 23.524C143.968 24.7 142.456 25.288 140.872 25.288C140.104 25.288 139.504 25.048 139.072 24.568C138.664 24.088 138.46 23.464 138.46 22.696C138.46 21.736 138.892 20.428 139.756 18.772C140.62 17.092 141.724 15.4 143.068 13.696C144.412 11.968 145.756 10.552 147.1 9.44801C147.988 8.72801 148.696 8.24801 149.224 8.008C149.752 7.74401 150.22 7.61201 150.628 7.61201C151.012 7.61201 151.408 7.73201 151.816 7.972C152.224 8.212 152.572 8.54801 152.86 8.98001C153.148 9.41201 153.292 9.90401 153.292 10.456C153.292 11.2 153.088 11.908 152.68 12.58L153.292 12.4C153.556 12.4 153.712 12.724 153.76 13.372C153.784 13.756 153.808 14.536 153.832 15.712C153.88 16.888 153.916 17.86 153.94 18.628C153.964 19.42 153.988 20.188 154.012 20.932C154.036 21.676 154.06 22.264 154.084 22.696C154.108 22.864 154.204 23.044 154.372 23.236C154.54 23.404 154.624 23.548 154.624 23.668ZM151.492 13.552C151.78 12.832 151.924 12.052 151.924 11.212C151.924 10.708 151.768 10.276 151.456 9.916C151.168 9.532 150.772 9.34 150.268 9.34C149.668 9.34 148.9 9.748 147.964 10.564C146.884 11.476 145.744 12.7 144.544 14.236C143.344 15.748 142.348 17.248 141.556 18.736C140.764 20.224 140.368 21.4 140.368 22.264C140.368 22.984 140.704 23.344 141.376 23.344C142.672 23.344 143.92 22.864 145.12 21.904C146.32 20.944 147.388 19.804 148.324 18.484C149.284 17.14 150.34 15.496 151.492 13.552Z" fill="black"/>
<path d="M169.358 10.996C169.19 10.996 169.022 10.924 168.854 10.78C168.71 10.636 168.542 10.432 168.35 10.168C168.182 9.92801 167.954 9.72401 167.666 9.55601C167.402 9.38801 167.126 9.304 166.838 9.304C166.142 9.304 165.206 10.228 164.03 12.076C162.854 13.9 161.702 16.204 160.574 18.988C160.598 19.54 160.634 20.236 160.682 21.076C160.754 21.916 160.802 22.54 160.826 22.948L160.934 24.388C160.934 24.724 160.862 25.012 160.718 25.252C160.574 25.516 160.31 25.648 159.926 25.648C159.518 25.648 159.254 25.108 159.134 24.028C159.014 22.924 158.942 21.328 158.918 19.24C158.894 18.712 158.87 17.956 158.846 16.972C158.846 15.988 158.822 14.812 158.774 13.444C158.702 11.38 158.666 9.90401 158.666 9.016C158.666 8.46401 159.002 8.18801 159.674 8.18801C160.082 8.18801 160.322 8.368 160.394 8.728C160.49 9.064 160.538 9.724 160.538 10.708V16.432C161.258 14.584 162.038 12.988 162.878 11.644C163.718 10.3 164.534 9.28 165.326 8.584C166.142 7.864 166.862 7.504 167.486 7.504C168.014 7.504 168.518 7.624 168.998 7.86401C169.478 8.104 169.862 8.416 170.15 8.8C170.438 9.16 170.582 9.508 170.582 9.844C170.582 10.06 170.426 10.312 170.114 10.6C169.826 10.864 169.574 10.996 169.358 10.996Z" fill="black"/>
<path d="M186.677 11.536C184.469 11.92 183.233 12.136 182.969 12.184L180.629 12.58C180.629 13.828 180.641 15.136 180.665 16.504C180.713 17.872 180.773 19.072 180.845 20.104C180.941 21.496 181.109 22.564 181.349 23.308C181.589 24.052 181.721 24.472 181.745 24.568C181.745 24.808 181.589 25.024 181.277 25.216C180.989 25.432 180.713 25.54 180.449 25.54C180.305 25.54 180.185 25.492 180.089 25.396C179.993 25.324 179.909 25.192 179.837 25C179.693 24.664 179.549 24.04 179.405 23.128C179.285 22.216 179.189 21.208 179.117 20.104C179.045 19.12 178.985 17.98 178.937 16.684C178.913 15.364 178.901 14.092 178.901 12.868C177.557 13.084 176.177 13.348 174.761 13.66C173.489 13.924 172.733 14.056 172.493 14.056C172.205 14.056 171.929 13.972 171.665 13.804C171.425 13.636 171.305 13.408 171.305 13.12C171.305 12.808 171.413 12.604 171.629 12.508C171.845 12.412 172.205 12.364 172.709 12.364C173.069 12.364 173.597 12.304 174.293 12.184C174.989 12.04 175.433 11.944 175.625 11.896C177.233 11.584 178.325 11.38 178.901 11.284C178.901 10.78 178.877 10.12 178.829 9.304C178.781 8.2 178.757 7.36 178.757 6.784C178.757 5.848 178.781 5.12801 178.829 4.624C178.901 4.09601 179.021 3.62801 179.189 3.22001C179.381 2.74001 179.741 2.50001 180.269 2.50001C180.485 2.50001 180.629 2.53601 180.701 2.608C180.773 2.68 180.809 2.81201 180.809 3.00401C180.809 3.14801 180.749 3.56801 180.629 4.264C180.509 4.96 180.449 5.884 180.449 7.03601C180.449 7.92401 180.473 8.92001 180.521 10.024L180.557 10.996C181.637 10.828 183.773 10.384 186.965 9.664C187.157 9.616 187.313 9.448 187.433 9.16C187.577 8.872 187.721 8.728 187.865 8.728C188.129 8.728 188.393 8.884 188.657 9.196C188.945 9.484 189.089 9.784 189.089 10.096C189.089 10.504 188.909 10.816 188.549 11.032C188.213 11.248 187.589 11.416 186.677 11.536Z" fill="black"/>
</svg>
