<svg width="18" height="17" viewBox="0 0 18 17" fill="none" xmlns="http://www.w3.org/2000/svg">
<path d="M6.39338 2.20905C6.48202 2.91811 8.07265 2.62203 7.18632 2.28113C6.52707 2.02758 6.35201 1.71512 5.96088 2.49739M15.2052 5.04224C15.3344 5.46784 15.336 5.89748 15.8161 5.89748C16.0674 5.89748 16.0242 5.70711 16.2369 5.64634C16.5118 5.5678 15.5719 5.22559 15.4496 5.16441M2.37653 8.70752C1.9986 9.53424 2.01 10.3283 2.01 11.2122C2.01 11.5055 1.9875 11.8089 2.01 12.1014C2.0385 12.4719 2.6089 13.0751 2.78379 13.4182C3.2876 14.4064 5.327 15.0608 6.47629 15.0608L6.51671 15.0608C7.73741 15.0608 8.8585 15.0609 9.95836 14.511C10.7769 14.1017 12.2992 13.8826 12.6395 12.8616" stroke="#727270" stroke-width="3" stroke-linecap="round"/>
</svg>
