<svg width="15" height="15" viewBox="0 0 15 15" fill="none" xmlns="http://www.w3.org/2000/svg">
<mask id="path-1-inside-1_119_535" fill="white">
<path d="M4.32747 12.5275L7.5 10.5723L10.6725 12.5494L9.83298 8.84918L12.6243 6.36722L8.9425 6.03404L7.5 2.55257L6.0575 6.01217L2.37565 6.34535L5.16702 8.83573L4.32747 12.5275ZM2.86527 14.5972L4.08926 9.19918L0 5.56964L5.39541 5.09009L7.5 0L9.60459 5.09009L15 5.56964L10.9107 9.19918L12.1347 14.5972L7.5 11.7333L2.86527 14.5972Z"/>
</mask>
<path d="M4.32747 12.5275L7.5 10.5723L10.6725 12.5494L9.83298 8.84918L12.6243 6.36722L8.9425 6.03404L7.5 2.55257L6.0575 6.01217L2.37565 6.34535L5.16702 8.83573L4.32747 12.5275ZM2.86527 14.5972L4.08926 9.19918L0 5.56964L5.39541 5.09009L7.5 0L9.60459 5.09009L15 5.56964L10.9107 9.19918L12.1347 14.5972L7.5 11.7333L2.86527 14.5972Z" fill="#8E8E8E"/>
<path d="M4.32747 12.5275L2.37726 12.084L1.32072 16.73L5.37681 14.2301L4.32747 12.5275ZM7.5 10.5723L8.55781 8.87489L7.50586 8.21931L6.45066 8.86964L7.5 10.5723ZM10.6725 12.5494L9.61472 14.2468L13.6839 16.7827L12.623 12.1069L10.6725 12.5494ZM9.83298 8.84918L8.50403 7.35456L7.62114 8.13958L7.88255 9.29172L9.83298 8.84918ZM12.6243 6.36722L13.9533 7.86184L17.4061 4.79176L12.8046 4.37536L12.6243 6.36722ZM8.9425 6.03404L7.09483 6.79961L7.55777 7.91691L8.76226 8.0259L8.9425 6.03404ZM7.5 2.55257L9.34768 1.78701L7.50582 -2.6583L5.65404 1.78288L7.5 2.55257ZM6.0575 6.01217L6.23774 8.00403L7.4392 7.89531L7.90346 6.78186L6.0575 6.01217ZM2.37565 6.34535L2.1954 4.35349L-2.39551 4.76893L1.04419 7.83773L2.37565 6.34535ZM5.16702 8.83573L7.11723 9.27923L7.37885 8.12878L6.49848 7.34334L5.16702 8.83573ZM2.86527 14.5972L0.914784 14.1549L-0.139607 18.805L3.91659 16.2986L2.86527 14.5972ZM4.08926 9.19918L6.03974 9.64145L6.30122 8.4883L5.41689 7.70339L4.08926 9.19918ZM0 5.56964L-0.177062 3.57749L-4.79493 3.98793L-1.32763 7.06543L0 5.56964ZM5.39541 5.09009L5.57247 7.08224L6.78032 6.97489L7.24365 5.85428L5.39541 5.09009ZM7.5 0L9.34825 -0.764191L7.5 -5.2343L5.65175 -0.764191L7.5 0ZM9.60459 5.09009L7.75635 5.85428L8.21968 6.97489L9.42753 7.08224L9.60459 5.09009ZM15 5.56964L16.3276 7.06543L19.7949 3.98793L15.1771 3.57749L15 5.56964ZM10.9107 9.19918L9.58311 7.70339L8.69878 8.4883L8.96026 9.64145L10.9107 9.19918ZM12.1347 14.5972L11.0834 16.2986L15.1396 18.805L14.0852 14.1549L12.1347 14.5972ZM7.5 11.7333L8.55132 10.0319L7.5 9.38227L6.44868 10.0319L7.5 11.7333ZM5.37681 14.2301L8.54934 12.2749L6.45066 8.86964L3.27812 10.8249L5.37681 14.2301ZM6.44219 12.2696L9.61472 14.2468L11.7303 10.852L8.55781 8.87489L6.44219 12.2696ZM12.623 12.1069L11.7834 8.40664L7.88255 9.29172L8.72211 12.9919L12.623 12.1069ZM11.1619 10.3438L13.9533 7.86184L11.2954 4.8726L8.50403 7.35456L11.1619 10.3438ZM12.8046 4.37536L9.12275 4.04218L8.76226 8.0259L12.4441 8.35908L12.8046 4.37536ZM10.7902 5.26848L9.34768 1.78701L5.65232 3.31813L7.09483 6.79961L10.7902 5.26848ZM5.65404 1.78288L4.21153 5.24248L7.90346 6.78186L9.34596 3.32226L5.65404 1.78288ZM5.87725 4.02031L2.1954 4.35349L2.5559 8.33721L6.23774 8.00403L5.87725 4.02031ZM1.04419 7.83773L3.83556 10.3281L6.49848 7.34334L3.70711 4.85296L1.04419 7.83773ZM3.21681 8.39223L2.37726 12.084L6.27767 12.971L7.11723 9.27923L3.21681 8.39223ZM4.81576 15.0395L6.03974 9.64145L2.13877 8.75691L0.914784 14.1549L4.81576 15.0395ZM5.41689 7.70339L1.32763 4.07385L-1.32763 7.06543L2.76162 10.695L5.41689 7.70339ZM0.177062 7.56178L5.57247 7.08224L5.21835 3.09795L-0.177062 3.57749L0.177062 7.56178ZM7.24365 5.85428L9.34825 0.764191L5.65175 -0.764191L3.54716 4.3259L7.24365 5.85428ZM5.65175 0.764191L7.75635 5.85428L11.4528 4.3259L9.34825 -0.764191L5.65175 0.764191ZM9.42753 7.08224L14.8229 7.56178L15.1771 3.57749L9.78165 3.09795L9.42753 7.08224ZM13.6724 4.07385L9.58311 7.70339L12.2384 10.695L16.3276 7.06543L13.6724 4.07385ZM8.96026 9.64145L10.1842 15.0395L14.0852 14.1549L12.8612 8.75691L8.96026 9.64145ZM13.1861 12.8958L8.55132 10.0319L6.44868 13.4347L11.0834 16.2986L13.1861 12.8958ZM6.44868 10.0319L1.81395 12.8958L3.91659 16.2986L8.55132 13.4347L6.44868 10.0319Z" fill="#8E8E8E" mask="url(#path-1-inside-1_119_535)"/>
</svg>
