<svg width="9" height="11" viewBox="0 0 9 11" fill="none" xmlns="http://www.w3.org/2000/svg">
<path d="M1.47462 11C1.23866 11 1.03544 10.9074 0.864963 10.7223C0.694482 10.5372 0.609242 10.3166 0.609242 10.0603V1.19647H0V0.457292H2.56615V0H6.43385V0.457292H9V1.19647H8.39076V10.0603C8.39076 10.3158 8.30535 10.5363 8.13454 10.7218C7.96372 10.9073 7.76066 11 7.52537 11H1.47462ZM7.71001 1.19647H1.28999V10.0603C1.28999 10.1188 1.30826 10.1669 1.3448 10.2044C1.38135 10.242 1.42462 10.2608 1.47462 10.2608H7.52537C7.57153 10.2608 7.61384 10.2399 7.6523 10.1982C7.69078 10.1564 7.71001 10.1105 7.71001 10.0603V1.19647ZM3.01847 8.88521H3.69922V2.5558H3.01847V8.88521ZM5.30078 8.88521H5.98152V2.5558H5.30078V8.88521Z" fill="#A6A6A6"/>
</svg>
